<?xml version="1.0" encoding="utf-8"?>
<!-- Generator: Adobe Illustrator 28.2.0, SVG Export Plug-In . SVG Version: 6.00 Build 0)  -->
<svg version="1.1" id="Layer_2_00000150812533831855160160000012530827118027274142_"
	 xmlns="http://www.w3.org/2000/svg" xmlns:xlink="http://www.w3.org/1999/xlink" x="0px" y="0px" viewBox="0 0 1920 450"
	 style="enable-background:new 0 0 1920 450;" xml:space="preserve">
<style type="text/css">
	.st0{fill:#FFFFFF;}
	.st1{fill:none;stroke:#FFFFFF;stroke-width:13;stroke-miterlimit:10;}
</style>
<g>
	<g>
		<path class="st0" d="M27.9,316.6h38.1c21.9,0,41.8,7.7,41.8,32.8c0,28.5-21.3,33.6-45.3,33.6H48v46.9H27.9V316.6z M60.2,365.8
			c11.5,0,26.4-0.6,26.4-16c0-13.9-13.3-15.8-24.2-15.8H48v31.8H60.2z"/>
		<path class="st0" d="M158.4,316.6h17.4l48.8,113.3h-23L191.1,404h-49.1l-10.2,25.9h-22.6L158.4,316.6z M184,386.7l-17.4-46.1
			l-17.8,46.1H184z"/>
		<path class="st0" d="M245.3,316.6h39.4c21.8,0,42.2,7,42.2,32.5c0,16.3-9.4,28.3-26.2,30.7l30.1,50.1h-24.3l-26.2-48h-14.7v48
			h-20.2V316.6z M281.1,364.6c11.4,0,24.6-1,24.6-15.7c0-13.4-12.5-15-22.9-15h-17.4v30.7H281.1z"/>
		<path class="st0" d="M354.1,316.6h39.4c21.8,0,42.2,7,42.2,32.5c0,16.3-9.4,28.3-26.2,30.7l30.1,50.1h-24.3l-26.2-48h-14.7v48
			h-20.2V316.6z M389.9,364.6c11.4,0,24.6-1,24.6-15.7c0-13.4-12.5-15-22.9-15h-17.4v30.7H389.9z"/>
		<path class="st0" d="M462.4,316.6h20.2v113.3h-20.2V316.6z"/>
		<path class="st0" d="M570.9,341c-4.3-6.1-12-9-19.8-9c-9.3,0-18.6,4.2-18.6,14.6c0,22.7,53.8,9.8,53.8,50.1
			c0,24.3-19.2,36.2-41.4,36.2c-14.1,0-27.8-4.3-37.1-15.4l15.2-14.7c5,7.5,13.4,11.8,22.4,11.8c9.3,0,19.8-5.1,19.8-15.5
			c0-24.8-53.8-10.6-53.8-51c0-23.4,20.8-34.2,41.8-34.2c11.8,0,23.7,3.4,32.5,11.7L570.9,341z"/>
		<path class="st0" d="M615.2,316.6h20.2v45.1h53v-45.1h20.2v113.3h-20.2V380h-53v49.9h-20.2V316.6z"/>
	</g>
	<path class="st0" d="M821.8,316.6h17.4L888,429.9h-23L854.4,404h-49.1L795,429.9h-22.6L821.8,316.6z M847.4,386.7l-17.4-46.1
		l-17.8,46.1H847.4z"/>
	<path class="st0" d="M907.8,316.6h39.4c21.8,0,42.2,7,42.2,32.5c0,16.3-9.4,28.3-26.2,30.7l30.1,50.1H969l-26.2-48H928v48h-20.2
		V316.6z M943.7,364.6c11.4,0,24.6-1,24.6-15.7c0-13.4-12.5-15-22.9-15H928v30.7H943.7z"/>
	<path class="st0" d="M1036.2,334.9h-34.7v-18.2h89.6v18.2h-34.7v95h-20.2V334.9z"/>
	<path class="st0" d="M1169.4,316.6h30.7l30.2,79.4l30.6-79.4h30.4v113.3h-19.2v-94.1h-0.3l-34.4,94.1h-14.1l-34.4-94.1h-0.3v94.1
		h-19.2V316.6z"/>
	<path class="st0" d="M1414.2,388.3c0,27.4-19.7,44.5-45.6,44.5c-25.9,0-45.6-17.1-45.6-44.5v-71.7h20.2v71
		c0,11.2,6.1,25.9,25.4,25.9c19.4,0,25.4-14.7,25.4-25.9v-71h20.2V388.3z"/>
	<path class="st0" d="M1501,341c-4.3-6.1-12-9-19.8-9c-9.3,0-18.6,4.2-18.6,14.6c0,22.7,53.8,9.8,53.8,50.1
		c0,24.3-19.2,36.2-41.4,36.2c-14.1,0-27.8-4.3-37.1-15.4l15.2-14.7c5,7.5,13.4,11.8,22.4,11.8c9.3,0,19.8-5.1,19.8-15.5
		c0-24.8-53.8-10.6-53.8-51c0-23.4,20.8-34.2,41.8-34.2c11.8,0,23.7,3.4,32.5,11.7L1501,341z"/>
	<path class="st0" d="M1543.7,316.6h75v18.2h-54.9v27.8h52V381h-52v30.7h57.8v18.2h-77.9V316.6z"/>
	<path class="st0" d="M1738.6,388.3c0,27.4-19.7,44.5-45.6,44.5c-25.9,0-45.6-17.1-45.6-44.5v-71.7h20.2v71
		c0,11.2,6.1,25.9,25.4,25.9s25.4-14.7,25.4-25.9v-71h20.2V388.3z"/>
	<path class="st0" d="M1770.2,316.6h30.7l30.2,79.4l30.6-79.4h30.4v113.3h-19.2v-94.1h-0.3l-34.4,94.1h-14.1l-34.4-94.1h-0.3v94.1
		h-19.2V316.6z"/>
	<g>
		<path class="st1" d="M33.5,228.4h670.7H33.5z"/>
		<g>
			<polygon class="st1" points="323.1,228.4 323.1,90.4 413.3,152.9 217.5,17.2 28.5,148.2 111.9,90.4 111.9,228.4 			"/>
		</g>
		<g>
			<polygon class="st1" points="624.5,228.4 624.5,90.4 707.9,148.2 518.9,17.2 323.1,152.9 413.3,90.4 413.3,228.4 			"/>
		</g>
	</g>
</g>
</svg>
